# xmcd
#
# Track frame offsets: 
#        150
#        26625
#        47100
#        67050
#        82425
#        97725
#        120600
#        140250
#
# Disc length: 2108 seconds
#
# Revision: 1
# Processed by: cddbd v1.5.2PL0 Copyright (c) Steve Scherf et al.
# Submitted via: ExactAudioCopyFreeDBPlugin 1.0
#
DISCID=6d083a08
DTITLE=Esther Phillips - What A Difference A Day Makes
DYEAR=1900
DGENRE=
TTITLE0=One Night Affair
TTITLE1=What A Diff'rence A Day Makes
TTITLE2=Mister Magic
TTITLE3=You're Coming Home
TTITLE4=I Can Stand A Little Rain
TTITLE5=Hurtin' House
TTITLE6=Oh Papa
TTITLE7=Turn Around, Look At Me
EXTD=
EXTT0=
EXTT1=
EXTT2=
EXTT3=
EXTT4=
EXTT5=
EXTT6=
EXTT7=
PLAYORDER=
